<svg xmlns="http://www.w3.org/2000/svg" viewBox="0 0 287.01 69.56">
    <path d="M73.23 36.13h3.52l-1.76-5.17-1.76 5.17zM219.97 29.86a4.84 4.84 0 1 0 4.73 4.84 4.72 4.72 0 0 0-4.73-4.84zM91.05 36h-1.76v3.3h1.76c1.1 0 1.87-.44 1.87-1.65S92.15 36 91.05 36zM92.15 31.51c0-.88-.55-1.43-1.76-1.43h-1.1v2.86h1.1c1.21 0 1.76-.55 1.76-1.43z"/>
    <path d="M20.38 0L0 20.37v28.82l20.38 20.37h266.63V0zm0 42.73a8 8 0 1 1 8-8 8 8 0 0 1-8 8zm44.07-.44l-.11.11h-8.8l-.09-.11V27.11l.11-.11h2.86l.11.11v12.21h5.83l.11.11zm17.93.11h-3.43l-.11-.11-1.1-3.08h-5.5l-1.1 3.08-.11.11h-3.41l-.11-.11 5.83-15.18.11-.11h3.08l.11.11 5.81 15.18zm8.91 0h-5l-.11-.11V27.11l.11-.11h4.07c2.86 0 5.17 1.54 5.17 4.18a3 3 0 0 1-1.54 2.75 4.1 4.1 0 0 1 2.31 3.74c.03 3.08-2.17 4.73-5.03 4.73zm20-.11l-.11.11h-10.56l-.11-.11V27.11l.11-.11h10.34l.11.11V30l-.11.11h-7.37v2.75h5.39l.11.11v2.83l-.11.11h-5.39v3.41h7.59l.11.11zm13.2 0l-.11.11h-8.8l-.11-.11V27.11l.11-.11h2.87l.11.11v12.21h5.83l.11.11zm8.69.44a5.27 5.27 0 0 1-5.17-3.41l2.53-1.69h.22a2.54 2.54 0 0 0 2.42 1.91 1.71 1.71 0 0 0 1.87-1.76c0-2.64-6.49-2.53-6.49-6.82a4.24 4.24 0 0 1 4.4-4.29 4.92 4.92 0 0 1 4.29 2.42l-2.38 1.76h-.22a2.22 2.22 0 0 0-1.69-1 1 1 0 0 0-1.1 1.1c0 1.76 6.49 1.76 6.49 6.82a5.05 5.05 0 0 1-5.17 4.96zm34.27-.44l-.11.11h-3.08l-.11-.11-3-9.13-3 9.13-.11.11h-3.08l-.11-.11-5.39-15.18.11-.11h3.3l.11.11 3.52 10.67 3-10.45.11-.11h3.08l.11.11 3 10.45 3.52-10.67.13-.11h3.3l.11.11zm19.91 0l-.11.11h-10.51l-.11-.11V27.11l.11-.11h10.34l.11.11V30l-.11.11h-7.37v2.75h5.39l.11.11v2.83l-.11.11h-5.39v3.41h7.59l.11.11zm22 0l-.11.11h-8.8l-.11-.11V27.11l.11-.11h2.86l.11.11v12.21h5.83l.11.11zm10.56.44a8 8 0 1 1 8.14-8 8 8 0 0 1-8.09 8zm19.69-.44l-.11.11h-3.05l-.11-.11-5.83-15.18.11-.11h3.3l.11.11 4 10.67 4-10.67.11-.11h3.3l.11.11zm20.35 0l-.11.11h-10.51l-.11-.11V27.11l.11-.11h10.34l.11.11V30l-.11.11h-7.37v2.75h5.39l.11.11v2.83l-.11.11h-5.39v3.41h7.59l.11.11z"/>
</svg>